# 3ds Max Wavefront OBJ Exporter v0.97b - (c)2007 guruware
# File Created: 12.05.2020 16:58:54

#
# object ColumnaV4
#

v  0.9239 0.0000 0.3827
v  0.8315 0.0000 0.5556
v  0.7071 0.0000 0.7071
v  0.5556 0.0000 0.8315
v  0.3827 0.0000 0.9239
v  0.1951 0.0000 0.9808
v  0.0000 0.0000 1.0000
v  -0.1951 0.0000 0.9808
v  -0.3827 0.0000 0.9239
v  -0.5556 0.0000 0.8315
v  -0.7071 0.0000 0.7071
v  -0.8315 0.0000 0.5556
v  -0.9239 0.0000 0.3827
v  -0.9808 0.0000 0.1951
v  -1.0000 0.0000 0.0000
v  -0.9808 0.0000 -0.1951
v  -0.9239 0.0000 -0.3827
v  -0.8315 0.0000 -0.5556
v  -0.7071 0.0000 -0.7071
v  -0.5556 0.0000 -0.8315
v  -0.3827 0.0000 -0.9239
v  -0.1951 0.0000 -0.9808
v  0.0000 0.0000 -1.0000
v  0.1951 0.0000 -0.9808
v  0.3827 0.0000 -0.9239
v  0.5556 0.0000 -0.8315
v  0.7071 0.0000 -0.7071
v  0.8315 0.0000 -0.5556
v  0.9239 0.0000 -0.3827
v  0.9808 0.0000 -0.1951
v  1.0000 0.0000 -0.0000
v  0.9808 0.0000 0.1951
v  0.9808 40.0000 -0.1951
v  1.0000 40.0000 -0.0000
v  0.9239 40.0000 -0.3827
v  0.8315 40.0000 -0.5556
v  0.7071 40.0000 -0.7071
v  0.5556 40.0000 -0.8315
v  0.3827 40.0000 -0.9239
v  0.1951 40.0000 -0.9808
v  0.0000 40.0000 -1.0000
v  -0.1951 40.0000 -0.9808
v  -0.3827 40.0000 -0.9239
v  -0.5556 40.0000 -0.8315
v  -0.7071 40.0000 -0.7071
v  -0.8315 40.0000 -0.5556
v  -0.9239 40.0000 -0.3827
v  -0.9808 40.0000 -0.1951
v  -1.0000 40.0000 0.0000
v  -0.9808 40.0000 0.1951
v  -0.9239 40.0000 0.3827
v  -0.8315 40.0000 0.5556
v  -0.7071 40.0000 0.7071
v  -0.5556 40.0000 0.8315
v  -0.3827 40.0000 0.9239
v  -0.1951 40.0000 0.9808
v  0.0000 40.0000 1.0000
v  0.1951 40.0000 0.9808
v  0.3827 40.0000 0.9239
v  0.5556 40.0000 0.8315
v  0.7071 40.0000 0.7071
v  0.8315 40.0000 0.5556
v  0.9239 40.0000 0.3827
v  0.9808 40.0000 0.1951
# 64 vertices

vn 0.0000 -1.0000 -0.0000
vn 1.0000 0.0000 -0.0000
vn 0.9808 0.0000 -0.1951
vn 0.9239 0.0000 -0.3827
vn 0.8315 0.0000 -0.5556
vn 0.7071 0.0000 -0.7071
vn 0.5556 0.0000 -0.8315
vn 0.3827 0.0000 -0.9239
vn 0.1951 0.0000 -0.9808
vn 0.0000 0.0000 -1.0000
vn -0.1951 0.0000 -0.9808
vn -0.3827 0.0000 -0.9239
vn -0.5556 0.0000 -0.8315
vn -0.7071 0.0000 -0.7071
vn -0.8315 0.0000 -0.5556
vn -0.9239 0.0000 -0.3827
vn -0.9808 0.0000 -0.1951
vn -1.0000 0.0000 0.0000
vn -0.9808 0.0000 0.1951
vn -0.9239 0.0000 0.3827
vn -0.8315 0.0000 0.5556
vn -0.7071 0.0000 0.7071
vn -0.5556 0.0000 0.8315
vn -0.3827 0.0000 0.9239
vn -0.1951 0.0000 0.9808
vn 0.0000 0.0000 1.0000
vn 0.1951 0.0000 0.9808
vn 0.3827 0.0000 0.9239
vn 0.5556 0.0000 0.8315
vn 0.7071 0.0000 0.7071
vn 0.8315 0.0000 0.5556
vn 0.9239 0.0000 0.3827
vn 0.9808 0.0000 0.1951
vn 0.0000 1.0000 -0.0000
# 34 vertex normals

o ColumnaV4
g ColumnaV4
s 1
f 1//1 2//1 3//1 
f 3//1 4//1 5//1 
f 5//1 6//1 7//1 
f 3//1 5//1 7//1 
f 7//1 8//1 9//1 
f 9//1 10//1 11//1 
f 7//1 9//1 11//1 
f 11//1 12//1 13//1 
f 13//1 14//1 15//1 
f 11//1 13//1 15//1 
f 7//1 11//1 15//1 
f 15//1 16//1 17//1 
f 17//1 18//1 19//1 
f 15//1 17//1 19//1 
f 19//1 20//1 21//1 
f 21//1 22//1 23//1 
f 19//1 21//1 23//1 
f 15//1 19//1 23//1 
f 23//1 24//1 25//1 
f 25//1 26//1 27//1 
f 23//1 25//1 27//1 
f 27//1 28//1 29//1 
f 29//1 30//1 31//1 
f 27//1 29//1 31//1 
f 23//1 27//1 31//1 
f 15//1 23//1 31//1 
f 7//1 15//1 31//1 
f 3//1 7//1 31//1 
f 1//1 3//1 31//1 
f 32//1 1//1 31//1 
s 8
f 31//2 30//3 33//3 
f 33//3 34//2 31//2 
f 30//3 29//4 35//4 
f 35//4 33//3 30//3 
f 29//4 28//5 36//5 
f 36//5 35//4 29//4 
f 28//5 27//6 37//6 
f 37//6 36//5 28//5 
f 27//6 26//7 38//7 
f 38//7 37//6 27//6 
f 26//7 25//8 39//8 
f 39//8 38//7 26//7 
f 25//8 24//9 40//9 
f 40//9 39//8 25//8 
f 24//9 23//10 41//10 
f 41//10 40//9 24//9 
f 23//10 22//11 42//11 
f 42//11 41//10 23//10 
f 22//11 21//12 43//12 
f 43//12 42//11 22//11 
f 21//12 20//13 44//13 
f 44//13 43//12 21//12 
f 20//13 19//14 45//14 
f 45//14 44//13 20//13 
f 19//14 18//15 46//15 
f 46//15 45//14 19//14 
f 18//15 17//16 47//16 
f 47//16 46//15 18//15 
f 17//16 16//17 48//17 
f 48//17 47//16 17//16 
f 16//17 15//18 49//18 
f 49//18 48//17 16//17 
f 15//18 14//19 50//19 
f 50//19 49//18 15//18 
f 14//19 13//20 51//20 
f 51//20 50//19 14//19 
f 13//20 12//21 52//21 
f 52//21 51//20 13//20 
f 12//21 11//22 53//22 
f 53//22 52//21 12//21 
f 11//22 10//23 54//23 
f 54//23 53//22 11//22 
f 10//23 9//24 55//24 
f 55//24 54//23 10//23 
f 9//24 8//25 56//25 
f 56//25 55//24 9//24 
f 8//25 7//26 57//26 
f 57//26 56//25 8//25 
f 7//26 6//27 58//27 
f 58//27 57//26 7//26 
f 6//27 5//28 59//28 
f 59//28 58//27 6//27 
f 5//28 4//29 60//29 
f 60//29 59//28 5//28 
f 4//29 3//30 61//30 
f 61//30 60//29 4//29 
f 3//30 2//31 62//31 
f 62//31 61//30 3//30 
f 2//31 1//32 63//32 
f 63//32 62//31 2//31 
f 1//32 32//33 64//33 
f 64//33 63//32 1//32 
f 32//33 31//2 34//2 
f 34//2 64//33 32//33 
s 1
f 34//34 33//34 35//34 
f 35//34 36//34 37//34 
f 37//34 38//34 39//34 
f 35//34 37//34 39//34 
f 39//34 40//34 41//34 
f 41//34 42//34 43//34 
f 39//34 41//34 43//34 
f 43//34 44//34 45//34 
f 45//34 46//34 47//34 
f 43//34 45//34 47//34 
f 39//34 43//34 47//34 
f 47//34 48//34 49//34 
f 49//34 50//34 51//34 
f 47//34 49//34 51//34 
f 51//34 52//34 53//34 
f 53//34 54//34 55//34 
f 51//34 53//34 55//34 
f 47//34 51//34 55//34 
f 55//34 56//34 57//34 
f 57//34 58//34 59//34 
f 55//34 57//34 59//34 
f 59//34 60//34 61//34 
f 61//34 62//34 63//34 
f 59//34 61//34 63//34 
f 55//34 59//34 63//34 
f 47//34 55//34 63//34 
f 39//34 47//34 63//34 
f 35//34 39//34 63//34 
f 34//34 35//34 63//34 
f 64//34 34//34 63//34 
# 124 faces

