# 3ds Max Wavefront OBJ Exporter v0.97b - (c)2007 guruware
# File Created: 13.04.2020 12:18:04

mtllib danimales.mtl

#
# object Box001
#

v  -0.0863 -0.1076 0.0817
v  -0.0863 -0.1076 -0.0997
v  0.0957 -0.1076 -0.0997
v  0.0957 -0.1076 0.0817
v  -0.0863 0.0700 0.0817
v  0.0957 0.0700 0.0817
v  0.0957 0.0700 -0.0997
v  -0.0863 0.0700 -0.0997
# 8 vertices

vn 0.0000 -1.0000 -0.0000
vn 0.0000 1.0000 -0.0000
vn 0.0000 0.0000 1.0000
vn 1.0000 0.0000 -0.0000
vn 0.0000 0.0000 -1.0000
vn -1.0000 0.0000 -0.0000
# 6 vertex normals

vt 0.2700 0.0793 0.0000
vt 0.4715 0.0732 0.0000
vt 0.4775 0.2747 0.0000
vt 0.2761 0.2807 0.0000
vt 0.2704 0.9604 0.0000
vt 0.2695 0.7383 0.0000
vt 0.4917 0.7375 0.0000
vt 0.4925 0.9596 0.0000
vt 0.0134 0.3946 0.0000
vt 0.2388 0.3946 0.0000
vt 0.2388 0.6201 0.0000
vt 0.0134 0.6201 0.0000
vt 0.2577 0.3939 0.0000
vt 0.4784 0.3939 0.0000
vt 0.4784 0.6146 0.0000
vt 0.2577 0.6146 0.0000
vt 0.5176 0.3826 0.0000
vt 0.7363 0.3826 0.0000
vt 0.7363 0.6012 0.0000
vt 0.5176 0.6012 0.0000
vt 0.7800 0.4086 0.0000
vt 0.9823 0.4086 0.0000
vt 0.9823 0.6109 0.0000
vt 0.7800 0.6109 0.0000
# 24 texture coords

o Box001
g Box001
usemtl 02___Default
s 2
f 1/1/1 2/2/1 3/3/1 
f 3/3/1 4/4/1 1/1/1 
s 4
f 5/5/2 6/6/2 7/7/2 
f 7/7/2 8/8/2 5/5/2 
s 8
f 1/9/3 4/10/3 6/11/3 
f 6/11/3 5/12/3 1/9/3 
s 16
f 4/13/4 3/14/4 7/15/4 
f 7/15/4 6/16/4 4/13/4 
s 32
f 3/17/5 2/18/5 8/19/5 
f 8/19/5 7/20/5 3/17/5 
s 64
f 2/21/6 1/22/6 5/23/6 
f 5/23/6 8/24/6 2/21/6 
# 12 faces

