# 3ds Max Wavefront OBJ Exporter v0.97b - (c)2007 guruware
# File Created: 21.05.2020 18:49:02

mtllib Portal.mtl

#
# object Model
#

#
# object Portal1
#

v  32.7977 107.2888 -0.0000
v  -31.4961 2.3404 -0.0000
v  32.7977 2.3404 -0.0000
v  -31.4961 107.2888 -0.0000
# 4 vertices

vn 0.0000 0.0000 1.0000
# 1 vertex normals

vt 3.8887 5.9862 0.0000
vt 3.1031 5.0215 0.0000
vt 3.8887 5.0215 0.0000
vt 3.1031 5.9862 0.0000
# 4 texture coords

o Portal1
g Portal1
usemtl Portal
s off
f 1/1/1 2/2/1 3/3/1 
f 2/2/1 1/1/1 4/4/1 
# 2 faces

