# Blender v2.82 (sub 7) OBJ File: 'StraightRoad.blend'
# www.blender.org
mtllib StraightRoad.mtl
o RoadStraight_Plane
v 0.053400 0.146080 24.937363
v 0.053400 0.146080 -24.996353
v -6.489141 0.176068 24.937363
v -6.489141 0.176068 -24.996353
v -6.494144 0.207752 24.937363
v -6.494144 0.207752 -24.996353
v -6.509152 0.249440 24.937363
v -6.509152 0.249440 -24.996353
v -6.778761 0.249440 24.937363
v -6.778761 0.249440 -24.996353
v -6.778761 0.152002 24.937363
v -6.778761 0.152002 -24.996353
v -10.291542 0.152002 24.937363
v -10.291542 0.152002 -24.996353
v -6.191781 0.141127 24.937363
v -6.254936 0.135623 24.937363
v -6.254936 0.135623 -24.996353
v -6.191781 0.141127 -24.996353
v -6.348258 0.119311 24.937363
v -6.409044 0.101786 24.937363
v -6.409044 0.101786 -24.996353
v -6.348258 0.119311 -24.996353
v -6.459696 0.081065 24.937363
v -6.489141 0.100834 24.937363
v -6.489141 0.100834 -24.996353
v -6.459696 0.081065 -24.996353
v -10.291542 -0.805139 24.937363
v -10.291542 -0.805139 -24.996353
v -0.053400 0.146080 24.937363
v -0.053400 0.146080 -24.996353
v 6.489141 0.176068 24.937363
v 6.489141 0.176068 -24.996353
v 6.494144 0.207752 24.937363
v 6.494144 0.207752 -24.996353
v 6.509152 0.249440 24.937363
v 6.509152 0.249440 -24.996353
v 6.778761 0.249440 24.937363
v 6.778761 0.249440 -24.996353
v 6.778761 0.152002 24.937363
v 6.778761 0.152002 -24.996353
v 10.291542 0.152002 24.937363
v 10.291542 0.152002 -24.996353
v 6.191781 0.141127 24.937363
v 6.254936 0.135623 24.937363
v 6.254936 0.135623 -24.996353
v 6.191781 0.141127 -24.996353
v 6.348258 0.119311 24.937363
v 6.409044 0.101786 24.937363
v 6.409044 0.101786 -24.996353
v 6.348258 0.119311 -24.996353
v 6.459696 0.081065 24.937363
v 6.489141 0.100834 24.937363
v 6.489141 0.100834 -24.996353
v 6.459696 0.081065 -24.996353
v 10.291542 -0.805139 24.937363
v 10.291542 -0.805139 -24.996353
vt 0.012204 -1.686762
vt 0.012204 2.686592
vt 0.004414 2.685618
vt 0.004414 -1.685868
vt 0.045472 -1.688462
vt 1.000000 -1.688677
vt 1.000000 2.688677
vt 0.045472 2.688443
vt 0.035821 2.688184
vt 0.035821 -1.688225
vt 0.021531 -1.687520
vt 0.021531 2.687417
vt 0.000000 2.686548
vt 0.000000 -1.686721
vt 0.012204 -1.686762
vt 0.004414 -1.685868
vt 0.004414 2.685618
vt 0.012204 2.686592
vt 0.045472 -1.688462
vt 0.045472 2.688443
vt 1.000000 2.688677
vt 1.000000 -1.688677
vt 0.035821 2.688184
vt 0.035821 -1.688225
vt 0.021531 2.687417
vt 0.021531 -1.687520
vt 0.000000 2.686548
vt 0.000000 -1.686721
vt 0.000000 0.000000
vt 0.000000 0.000000
vt 0.000000 0.000000
vt 0.000000 0.000000
vt 0.000000 0.000000
vt 0.000000 0.000000
vt 0.000000 0.000000
vt 0.000000 0.000000
vt 0.000000 0.000000
vt 0.000000 0.000000
vt 0.000000 0.000000
vt 0.000000 0.000000
vt 0.000000 0.000000
vt 0.000000 0.000000
vt 0.000000 0.000000
vt 0.000000 0.000000
vt 0.000000 0.000000
vt 0.000000 0.000000
vt 0.000000 0.000000
vt 0.000000 0.000000
vt 0.000000 0.000000
vt 0.000000 0.000000
vt 0.000000 0.000000
vt 0.000000 0.000000
vt 1.942509 5.322955
vt 1.942506 -4.322955
vt -0.942509 -4.322955
vt -0.942506 5.322955
vt -0.942509 -4.322955
vt -0.942506 5.322955
vt 1.942509 5.322955
vt -0.942506 5.322955
vt -0.942509 -4.322955
vt 1.942506 -4.322955
vt -0.942506 5.322955
vt -0.942509 -4.322955
vn -0.3786 0.9255 0.0000
vn -0.0008 1.0000 0.0000
vn -0.0868 0.9962 -0.0000
vn -0.2770 0.9609 0.0000
vn 0.5574 0.8302 0.0000
vn -0.1722 0.9851 -0.0000
vn 0.3786 0.9255 0.0000
vn 0.0008 1.0000 0.0000
vn 0.0868 0.9962 -0.0000
vn 0.2770 0.9609 0.0000
vn -0.5574 0.8302 0.0000
vn 0.1722 0.9851 -0.0000
vn 1.0000 0.0000 0.0000
vn 0.9878 0.1560 0.0000
vn 0.9409 0.3387 0.0000
vn 0.0000 1.0000 0.0000
vn -1.0000 0.0000 0.0000
vn -0.9878 0.1560 0.0000
vn -0.9409 0.3387 0.0000
usemtl RoadStraight
s off
f 20/1/1 21/2/1 26/3/1 23/4/1
f 15/5/2 1/6/2 2/7/2 18/8/2
f 17/9/3 16/10/3 15/5/3 18/8/3
f 21/2/4 20/1/4 19/11/4 22/12/4
f 25/13/5 24/14/5 23/4/5 26/3/5
f 16/10/6 17/9/6 22/12/6 19/11/6
f 48/15/7 51/16/7 54/17/7 49/18/7
f 43/19/8 46/20/8 30/21/8 29/22/8
f 45/23/9 46/20/9 43/19/9 44/24/9
f 49/18/10 50/25/10 47/26/10 48/15/10
f 53/27/11 54/17/11 51/16/11 52/28/11
f 44/24/12 47/26/12 50/25/12 45/23/12
usemtl Curb
f 24/29/13 25/30/13 4/31/13 3/32/13
f 3/32/14 4/31/14 6/33/14 5/34/14
f 5/34/15 6/33/15 8/35/15 7/36/15
f 7/36/16 8/35/16 10/37/16 9/38/16
f 9/38/17 10/37/17 12/39/17 11/40/17
f 52/41/17 31/42/17 32/43/17 53/44/17
f 31/42/18 33/45/18 34/46/18 32/43/18
f 33/45/19 35/47/19 36/48/19 34/46/19
f 35/47/16 37/49/16 38/50/16 36/48/16
f 37/49/13 39/51/13 40/52/13 38/50/13
usemtl FootPath
f 11/53/16 12/54/16 14/55/16 13/56/16
f 13/56/17 14/55/17 28/57/17 27/58/17
f 39/59/16 41/60/16 42/61/16 40/62/16
f 41/60/13 55/63/13 56/64/13 42/61/13
