# 3ds Max Wavefront OBJ Exporter v0.97b - (c)2007 guruware
# File Created: 12.05.2020 17:51:52

#
# object Tapa
#

v  11.4805 -0.0000 27.7164
v  -11.4805 -0.0000 27.7164
v  -27.7164 -0.0000 11.4805
v  -27.7164 -0.0000 -11.4805
v  -11.4805 -0.0000 -27.7164
v  11.4805 -0.0000 -27.7164
v  27.7164 -0.0000 -11.4805
v  27.7164 -0.0000 11.4805
# 8 vertices

vn 0.0000 -1.0000 -0.0000
# 1 vertex normals

o Tapa
g Tapa
s 1
f 1//1 2//1 3//1 
f 3//1 4//1 5//1 
f 1//1 3//1 5//1 
f 5//1 6//1 7//1 
f 1//1 5//1 7//1 
f 8//1 1//1 7//1 
# 6 faces

